<?xml version="1.0" encoding="utf-8"?>
<svg viewBox="-44.933 -110.548 960 2193.61" width="960px" height="2193.61px" xmlns="http://www.w3.org/2000/svg">
  <path style="fill-opacity: 0.375; fill: rgb(0, 255, 21);" d="M 656.057 551.397 C 442.741 364.732 305.159 603.595 301.797 582.54 C 298.593 562.468 298.036 562.185 295.472 579.317 C 293.942 589.531 285.048 626.336 278.259 650.54 C 275.861 659.09 275.576 661.891 275.402 678.54 C 275.297 688.715 274.706 699.065 274.09 701.54 C 272.498 707.938 263.102 735.274 260.857 740.04 C 257.594 746.965 251.212 762.706 248.084 771.54 C 234.194 810.775 221.156 843.695 210.657 866.04 C 196.81 895.512 190.245 911.966 176.943 950.54 C 168.433 975.218 162.264 992.677 160.868 996.04 C 160.411 997.14 159.803 1000.065 159.517 1002.54 C 159.23 1005.015 158.475 1010.415 157.838 1014.54 C 157.15 1018.99 156.963 1025.09 157.378 1029.54 C 159.03 1047.271 159.297 1044.516 152.374 1081.04 C 148.183 1103.151 148.081 1100.912 154.933 1137.04 C 155.977 1142.54 156.956 1152.14 157.111 1158.372 C 157.391 1169.695 157.389 1169.706 154.586 1172.122 C 153.025 1173.467 150.505 1174.54 148.908 1174.54 C 143.995 1174.54 142.408 1171.185 139.981 1155.663 C 138.781 1147.989 136.926 1138.657 135.858 1134.925 C 134.791 1131.193 133.194 1124.199 132.309 1119.382 C 130.362 1108.792 128.702 1106.787 125.353 1110.986 C 124.088 1112.573 122.808 1115.26 122.51 1116.956 C 122.213 1118.652 121.689 1132.64 121.346 1148.04 C 120.477 1187.116 119.812 1194.074 116.648 1197.239 C 113.679 1200.207 108.161 1200.602 104.369 1198.117 C 101.507 1196.242 101.385 1194.609 102.945 1179.04 C 103.744 1171.064 103.605 1166.039 102.258 1154.214 C 100.862 1141.961 100.772 1138.056 101.737 1131.714 C 103.115 1122.659 103.233 1116.54 102.028 1116.54 C 101.554 1116.54 100.901 1119.353 100.579 1122.79 C 100.256 1126.228 99.505 1133.315 98.909 1138.54 C 98.314 1143.765 97.648 1159.883 97.43 1174.357 C 97.106 1195.864 96.752 1201.104 95.496 1203.021 C 92.648 1207.368 84.008 1207.49 80.146 1203.238 C 78.365 1201.279 78.056 1198.925 77.289 1181.54 C 76.213 1157.119 76.169 1140.731 77.158 1133.221 C 77.669 1129.345 77.586 1127.611 76.908 1128.03 C 76.349 1128.375 75.892 1129.955 75.892 1131.54 C 75.892 1133.125 75.442 1134.7 74.892 1135.04 C 74.274 1135.422 73.892 1144.061 73.892 1157.631 C 73.892 1180.98 73.2 1185.235 69.042 1187.46 C 65.401 1189.408 61.122 1188.718 57.657 1185.622 L 54.392 1182.705 L 53.775 1160.372 C 53.436 1148.09 53.558 1134.665 54.046 1130.54 C 54.534 1126.415 55.89 1114.94 57.059 1105.04 C 59.322 1085.871 60.504 1066.54 59.413 1066.54 C 58.729 1066.54 48.671 1075.174 41.557 1081.869 C 34.405 1088.599 25.803 1091.563 13.593 1091.507 C 5.377 1091.469 1.892 1089.565 1.892 1085.114 C 1.892 1083.053 2.676 1082.174 5.642 1080.91 C 15.723 1076.615 17.892 1075.488 17.892 1074.544 C 17.892 1073.981 22.697 1068.692 28.571 1062.79 C 34.444 1056.888 41.227 1049.355 43.644 1046.05 C 51.404 1035.436 52.169 1034.54 53.469 1034.54 C 54.171 1034.54 55.695 1033.334 56.855 1031.86 C 58.015 1030.385 60.921 1027.798 63.312 1026.11 C 74.13 1018.474 89.835 1004.314 92.492 999.798 C 97.097 991.974 98.89 987.794 98.91 984.839 C 98.927 982.293 100.379 976.33 105.923 956.04 C 106.975 952.19 108.749 945.691 109.866 941.598 C 110.983 937.505 112.579 930.222 113.413 925.414 C 114.248 920.606 116.463 912.438 118.336 907.263 C 123.777 892.233 126.62 878.402 134.415 829.04 C 139.799 794.942 142.69 778.313 145.366 766.04 C 146.685 759.99 149.18 746.94 150.91 737.04 C 153.863 720.146 159.503 698.047 164.055 685.54 C 165.156 682.515 167.773 675.09 169.871 669.04 C 171.968 662.99 175.032 655.115 176.678 651.54 C 185.281 632.858 188.71 618.733 191.85 589.04 C 193.013 578.04 195.07 560.04 196.422 549.04 C 203.259 493.41 203.394 491.481 203.124 453.54 C 202.732 398.533 204.439 378.523 212.508 343.54 C 217.155 323.395 222.119 308.16 225.865 302.545 C 233.028 291.809 242.788 284.329 256.975 278.702 C 264.685 275.643 268.083 273.912 277.892 268.048 C 280.917 266.24 287.814 263.115 293.219 261.105 C 316.444 252.466 371.306 226.104 385.392 216.814 C 395.044 210.448 401.242 204.34 403.478 198.989 C 405.647 193.797 557.456 190.121 560.3 194.974 C 563.87 201.067 572.201 208.321 581.452 213.393 C 620.192 234.632 656.932 252.68 679.392 261.506 C 697.218 268.511 700.318 270.066 712.892 278.309 C 727.356 287.791 738.738 297.2 743.362 303.5 C 752.199 315.539 758.63 336.776 763.965 371.54 C 766.03 384.993 766.208 389.942 766.433 440.04 C 766.664 491.705 767.641 514.775 770.825 543.787 C 776.497 595.479 779.544 617.098 783.052 630.54 C 785.52 639.999 791.545 657.951 798.568 674.326 C 804.76 688.763 811.485 708.542 814.876 722.54 C 816.008 727.215 818.296 740.265 819.959 751.54 C 821.623 762.815 824.746 782.84 826.899 796.04 C 830.824 820.099 833.986 841.086 835.939 856.04 C 837.975 871.624 840.083 883.897 842.016 891.421 C 844.24 900.079 854.368 932.075 859.621 947.04 C 861.552 952.54 864.61 962.215 866.417 968.54 C 872.29 989.099 874.573 994.127 881.311 1001.331 C 884.655 1004.907 894.075 1013.674 902.243 1020.814 C 911.401 1028.818 918.11 1035.523 919.743 1038.301 C 922.917 1043.702 929.515 1052.168 935.962 1059.114 C 938.552 1061.904 941.623 1066.054 942.787 1068.336 C 945.854 1074.347 950.117 1078.826 956.384 1082.625 C 961.255 1085.577 961.892 1086.34 961.892 1089.228 C 961.892 1094.198 958.536 1095.946 950.273 1095.283 C 940.109 1094.467 931.44 1089.664 920.142 1078.589 L 910.892 1069.521 L 910.892 1075.665 C 910.892 1082.137 911.318 1085.204 915.459 1108.54 C 919.67 1132.271 919.851 1134.188 919.871 1155.322 C 919.895 1178.772 919.241 1181.661 913.351 1184.122 C 910.049 1185.501 909.421 1185.477 906.065 1183.836 C 901.148 1181.432 900.265 1178.352 898.915 1158.901 C 897.24 1134.789 896.6 1130.559 893.274 1121.671 C 891.964 1118.168 890.892 1113.781 890.892 1111.921 C 890.892 1110.062 890.442 1108.54 889.892 1108.54 C 888.403 1108.54 888.681 1114.939 890.468 1121.837 C 892.47 1129.562 892.796 1148.896 891.142 1161.751 C 890.454 1167.092 889.892 1177.263 889.892 1184.355 C 889.892 1196.566 889.765 1197.385 887.5 1199.829 C 884.374 1203.202 878.481 1204.352 874.99 1202.27 C 870.181 1199.403 869.897 1197.715 870.235 1174.04 C 870.543 1152.533 870.068 1142.217 867.933 1124.083 C 866.197 1109.341 864.749 1111.152 865.511 1127.113 C 865.958 1136.478 865.81 1142.282 865.065 1144.588 C 863.369 1149.838 861.925 1164.481 861.58 1179.928 C 861.282 1193.245 861.17 1193.897 858.842 1195.781 C 855.621 1198.39 848.247 1197.583 845.555 1194.327 C 843.817 1192.224 843.749 1189.843 844.287 1149.653 C 844.839 1108.376 844.638 1104.54 841.92 1104.54 C 841.521 1104.54 841.121 1108.431 841.032 1113.186 C 840.944 1117.941 840.132 1124.578 839.23 1127.936 C 838.327 1131.293 837.501 1136.29 837.393 1139.04 C 837.065 1147.417 835.75 1159.832 834.781 1163.697 C 833.232 1169.876 825.659 1170.788 821.554 1165.289 C 818.824 1161.633 818.257 1149.82 820.03 1133.54 C 821.774 1117.524 821.777 1097.588 820.037 1090.793 C 819.298 1087.906 818.4 1085.726 818.042 1085.947 C 817.684 1086.168 817.297 1084.143 817.181 1081.447 C 817.065 1078.751 816.512 1074.843 815.951 1072.762 C 812.444 1059.736 810.962 1045.351 811.175 1026.385 C 811.381 1008.018 811.278 1006.827 809.142 1002.83 C 807.904 1000.514 806.892 997.942 806.892 997.113 C 806.892 995.645 799.809 978.778 784.551 943.909 C 780.428 934.487 774.589 920.312 771.574 912.409 C 768.56 904.506 761.058 886.115 754.903 871.54 C 740.932 838.457 738.293 831.616 726.352 797.54 C 716.771 770.197 713.956 762.966 708.055 750.54 C 704.608 743.283 694.922 716.761 692.899 709.04 C 692.095 705.974 691.505 696.886 691.373 685.54 C 691.181 668.972 690.881 666.048 688.507 657.54 C 682.942 637.598 673.955 614.301 671.132 598.877 C 668.703 585.6 667.892 555.21 667.892 549.911 C 667.892 549.157 667.495 548.54 667.011 548.54 C 666.526 548.54 869.373 738.062 656.057 551.397 Z" id="path-2" transform="matrix(1, 0, 0, 1, -46.825162, 24.789555)"/>
  <path style="fill-opacity: 0.375; fill: rgb(25, 56, 255);" d="M 560.098 194.953 C 563.668 201.046 401.04 204.319 403.276 198.968 C 405.445 193.776 407.694 177.784 408.205 163.925 C 408.652 151.774 408.564 151.063 405.825 144.664 C 399.777 130.532 396.486 118.903 393.239 100.188 C 391.574 90.593 391.184 89.519 389.363 89.519 C 388.698 89.519 386.42 88.341 384.302 86.902 C 379.181 83.422 373.78 71.793 370.298 56.751 C 367.309 43.838 367.093 38.908 369.166 30.949 C 370.727 24.957 371.764 23.19 375.506 20.151 C 377.507 18.526 377.73 17.706 377.14 14.144 C 376.765 11.876 376.061 9.264 375.577 8.342 C 375.093 7.419 374.208 0.894 373.61 -6.158 C 373.012 -13.211 372.045 -19.974 371.461 -21.187 C 370.707 -22.751 370.723 -26.245 371.514 -33.187 C 372.227 -39.45 372.279 -43.101 371.659 -43.314 C 370.416 -43.741 370.395 -47.181 371.632 -47.945 C 372.15 -48.265 372.848 -50.654 373.183 -53.254 C 373.518 -55.854 374.219 -58.762 374.741 -59.717 C 375.263 -60.672 375.69 -62.647 375.69 -64.107 C 375.69 -65.566 377.116 -69.059 378.86 -71.87 C 380.604 -74.681 383.48 -79.524 385.251 -82.634 C 388.202 -87.813 396.873 -99.031 405.6 -108.96 C 409.858 -113.803 418.37 -120.34 421.44 -121.123 C 422.677 -121.439 423.69 -122.118 423.69 -122.633 C 423.69 -123.147 424.252 -123.464 424.94 -123.336 C 425.627 -123.208 427.603 -123.438 429.331 -123.848 C 431.751 -124.421 432.361 -125.021 431.985 -126.461 C 431.574 -128.031 432.267 -128.445 436.326 -129.053 C 438.983 -129.452 442.646 -130.4 444.467 -131.161 C 446.288 -131.922 448.228 -132.266 448.777 -131.926 C 449.327 -131.587 450.406 -131.831 451.175 -132.469 C 451.944 -133.107 454.737 -133.697 457.381 -133.779 C 460.026 -133.862 462.51 -134.39 462.902 -134.953 C 463.371 -135.627 465.294 -135.38 468.536 -134.229 C 474.322 -132.174 477.365 -132.006 477.933 -133.71 C 478.237 -134.623 478.98 -134.521 480.825 -133.312 C 483.171 -131.775 487 -131.752 490.69 -133.253 C 491.515 -133.589 493.54 -133.974 495.19 -134.109 C 496.84 -134.243 499.716 -134.668 501.582 -135.052 C 503.911 -135.531 504.764 -135.41 504.305 -134.667 C 503.853 -133.936 505.558 -133.594 509.557 -133.613 C 515.904 -133.643 519.747 -132.132 523.412 -128.163 C 524.634 -126.839 527.668 -125.187 530.153 -124.491 C 532.638 -123.795 535.688 -122.218 536.931 -120.985 C 538.173 -119.753 541.44 -117.593 544.19 -116.185 C 552.492 -111.935 560.165 -103.795 575.017 -83.481 C 576.827 -81.006 578.884 -77.406 579.587 -75.481 C 580.291 -73.556 581.525 -70.748 582.329 -69.24 C 584.337 -65.476 585.92 -56.621 586.396 -46.481 C 586.875 -36.28 586.905 -37.589 585.75 -18.981 C 584.575 -0.05 583.184 10.358 581.013 16.47 L 579.307 21.276 L 581.972 24.443 C 584.842 27.854 588.69 38.874 588.69 43.684 C 588.69 48.775 583.813 68.651 580.43 77.35 C 578.396 82.578 575.917 86.955 573.773 89.1 C 570.346 92.529 569.712 92.784 564.228 92.937 L 561.266 93.019 L 558.419 107.019 C 554.228 127.622 553.981 128.744 552.933 132.019 C 551.989 134.971 552.097 148.516 553.187 163.803 C 554.024 175.543 557.254 190.1 560.098 194.953 Z" id="path-3" transform="matrix(1, 0, 0, 1, -46.825162, 24.789555)"/>
  <g id="g-1" transform="matrix(1, 0, 0, 1, 506.860207, 650.568186)">
    <path style="fill-opacity: 0.375; fill: rgb(255, 1, 9);" d="M 126.729 226.942 C 127.857 229.878 -274.491 259.733 -266.979 239.15 C -260.816 222.264 -258.857 206.104 -258.564 169.73 C -258.368 145.432 -258.232 144.449 -249.925 107.23 C -243.973 80.561 -242.676 66.905 -242.611 30.23 C -242.566 4.647 -247.295 -12.449 -247.162 -33.77 C -246.361 -161.98 105.594 -168.145 102.147 -80.387 C 102.117 -79.634 100.109 52.649 107.089 87.23 C 116.35 133.114 117.743 143.837 118.974 178.73 C 119.497 193.58 120.367 207.53 120.905 209.73 C 121.444 211.93 121.896 215.627 121.909 217.945 C 121.926 221.017 122.438 222.43 123.795 223.157 C 124.82 223.705 126.14 225.409 126.729 226.942 Z" id="path-1"/>
  </g>
  <g id="g-3" transform="matrix(1, 0, 0, 1, -498.632545, 694.504344)">
    <path style="fill-opacity: 0.375; fill: rgb(242, 255, 0);" d="M 1130.296 1387.364 C 1126.126 1385.494 1119.944 1379.755 1116.867 1374.896 C 1115.648 1372.971 1113.843 1368.471 1112.856 1364.896 C 1111.869 1361.321 1109.834 1355.921 1108.335 1352.896 C 1104.825 1345.816 1101.674 1326.348 1100.323 1303.396 C 1099.416 1288.002 1098.986 1285.404 1095.765 1275.896 C 1093.809 1270.121 1091.581 1262.696 1090.815 1259.396 C 1090.048 1256.096 1088.983 1251.596 1088.447 1249.396 C 1087.912 1247.196 1087.157 1241.121 1086.77 1235.896 C 1086.235 1228.676 1085.214 1224.117 1082.515 1216.896 C 1080.562 1211.671 1078.646 1204.471 1078.258 1200.896 C 1077.819 1196.843 1076.219 1191.436 1074.009 1186.53 C 1068.991 1175.391 1068.535 1169.534 1071.858 1158.896 C 1076.617 1143.667 1076.276 1121.41 1070.751 1086.396 C 1067.961 1068.721 1060.112 1025.147 1057.15 1010.896 C 1052.986 990.862 1051.738 986.306 1041.361 953.238 C 1032.533 925.106 1031.972 919.211 1028.434 817.396 L 1027.565 792.396 L 1022.321 778.905 C 1019.437 771.484 1015.488 762.259 1013.546 758.405 C 1008.011 747.422 1000.654 725.331 998.374 712.848 C 996.919 704.878 996.29 697.261 996.278 687.432 C 996.268 679.712 995.829 669.346 995.303 664.396 C 994.777 659.446 993.859 647.521 993.263 637.896 C 992.667 628.271 991.319 614.321 990.266 606.896 C 987.826 589.689 976.838 536.485 969.303 505.396 C 965.728 490.646 962.604 474.72 961.197 464.073 C 959.939 454.545 958.434 446.121 957.852 445.352 C 956.984 444.202 955.586 444.736 949.998 448.35 C 944.519 451.894 941.996 452.874 936.998 453.402 C 933.325 453.79 929.66 453.621 928.01 452.988 C 925.901 452.178 925.136 452.219 924.86 453.157 C 924.659 453.839 923.301 463.396 921.843 474.396 C 920.384 485.396 917.653 501.371 915.774 509.896 C 911.059 531.28 905.521 566.245 904.329 582.145 C 903.783 589.433 902.674 599.896 901.865 605.396 C 900.339 615.774 898.256 662.995 898.249 687.396 C 898.242 708.966 896.943 718.468 891.895 733.896 C 889.466 741.321 885.587 751.896 883.277 757.396 C 880.966 762.896 877.775 772.013 876.185 777.657 C 872.098 792.17 872.135 795.056 877.318 864.465 C 877.896 872.203 878.368 885.253 878.366 893.465 C 878.362 914.356 876.668 924.215 864.294 975.396 C 862.167 984.196 859.68 995.446 858.767 1000.396 C 857.855 1005.346 856.209 1013.671 855.109 1018.896 C 854.009 1024.121 852.731 1031.096 852.27 1034.396 C 851.809 1037.696 850.521 1045.346 849.409 1051.396 C 846.67 1066.293 844.296 1093.147 844.296 1109.225 C 844.296 1120.04 844.751 1124.239 846.803 1132.328 C 850.528 1147.013 850.87 1153.941 848.287 1162.396 C 840.611 1187.519 839.258 1195.043 838.306 1217.896 C 837.595 1234.984 837.159 1238.448 834.783 1245.896 C 833.291 1250.571 831.047 1256.421 829.796 1258.896 C 826.564 1265.292 825.099 1276.19 825.253 1292.701 C 825.326 1300.568 824.944 1308.443 824.405 1310.201 C 823.866 1311.958 822.244 1318.079 820.801 1323.803 C 819.357 1329.527 817.258 1336.01 816.135 1338.211 C 815.013 1340.411 813.434 1344.503 812.627 1347.304 C 811.821 1350.105 809.562 1354.757 807.608 1357.643 C 804.587 1362.106 803.3 1363.114 798.995 1364.393 C 788.456 1367.523 779.818 1365.676 775.717 1359.417 C 773.409 1355.894 774.189 1344.977 777.166 1339.146 C 778.876 1335.797 779.032 1334.896 777.902 1334.896 C 776.194 1334.896 769.951 1345.731 768.395 1351.396 C 767.791 1353.596 766.958 1355.896 766.546 1356.507 C 765.27 1358.396 759.543 1360.896 756.493 1360.896 C 752.358 1360.896 746.979 1356.973 745.839 1353.125 C 745.082 1350.572 744.344 1349.896 742.311 1349.896 C 738.804 1349.896 735.356 1347.285 733.732 1343.399 C 732.783 1341.127 731.53 1339.993 729.527 1339.593 C 726.154 1338.918 724.296 1335.5 724.296 1329.972 C 724.296 1327.618 723.655 1325.612 722.634 1324.769 C 719.656 1322.309 716.296 1313.188 716.296 1307.565 C 716.296 1301.217 721.806 1276.409 723.996 1272.896 C 724.853 1271.521 726.594 1269.271 727.864 1267.896 C 729.134 1266.521 731.983 1261.796 734.196 1257.396 C 736.409 1252.996 741.375 1245.571 745.232 1240.896 C 752.719 1231.822 754.672 1229.102 761.032 1218.896 C 763.8 1214.455 765.413 1210.442 766.125 1206.224 C 766.824 1202.087 769.308 1195.823 773.658 1187.224 C 780.71 1173.287 781.354 1170.256 779.893 1157.896 C 779.112 1151.288 779.486 1149.271 785.813 1125.928 C 788.053 1117.666 787.66 1110.062 783.353 1078.396 C 781.183 1062.446 778.458 1039.721 777.297 1027.896 C 776.136 1016.071 774.325 998.746 773.272 989.396 C 772.22 980.046 770.873 967.671 770.279 961.896 C 769.684 956.121 767.58 939.921 765.602 925.896 C 762.351 902.845 761.996 898.139 761.901 876.896 C 761.799 854.128 762.038 850.744 766.38 813.396 C 767.729 801.794 769.627 790.255 773.452 770.396 C 776.459 754.782 776.512 753.999 775.664 737.896 C 775.187 728.821 774.796 708.121 774.796 691.896 C 774.796 659.618 775.332 663.616 768.153 642.396 C 764.619 631.952 760.449 608.746 756.246 576.135 C 755.13 567.479 753.11 553.81 751.757 545.76 C 750.403 537.71 749.296 529.597 749.296 527.729 C 749.296 525.862 748.195 518.498 746.849 511.365 C 745.503 504.232 743.476 491.646 742.344 483.396 C 741.212 475.146 739.608 463.896 738.779 458.396 C 732.663 417.81 724.177 333.495 725.729 328.729 C 725.967 327.996 726.41 312.546 726.712 294.396 C 727.668 236.932 730.872 207.399 738.384 186.816 C 744.547 169.93 1125.73 155.196 1126.268 157.396 C 1126.807 159.596 1127.259 163.293 1127.272 165.611 C 1127.289 168.683 1127.801 170.096 1129.158 170.823 C 1130.183 171.371 1131.503 173.075 1132.092 174.608 C 1133.22 177.544 1136.261 192.292 1136.792 197.396 C 1136.963 199.046 1137.778 202.534 1138.602 205.146 C 1139.426 207.759 1139.864 209.896 1139.575 209.896 C 1139.287 209.896 1139.544 210.491 1140.147 211.217 C 1140.75 211.944 1141.214 213.856 1141.178 215.467 C 1141.143 217.078 1141.64 220.646 1142.283 223.396 C 1146.94 243.301 1148.324 250.91 1149.286 261.896 C 1150.538 276.187 1151.907 287.686 1153.812 299.896 C 1154.541 304.571 1155.919 315.581 1156.874 324.362 C 1158.399 338.38 1158.463 342.529 1157.405 358.362 C 1155.636 384.829 1150.624 437.515 1147.746 459.896 C 1146.367 470.621 1144.366 491.996 1143.299 507.396 C 1141.025 540.228 1133.034 617.238 1130.789 627.961 C 1129.933 632.05 1128.393 638.096 1127.368 641.396 C 1121.647 659.807 1119.236 696.997 1121.21 736.396 C 1122.325 758.653 1123.227 763.724 1130.632 789.396 C 1135.16 805.096 1141.831 838.88 1143.761 855.896 C 1146.456 879.647 1145.699 918.765 1141.786 957.896 C 1140.27 973.064 1138.628 1004.172 1137.775 1033.896 C 1137.498 1043.521 1136.818 1057.696 1136.262 1065.396 C 1132.864 1112.507 1132.434 1133.202 1134.719 1139.68 C 1135.502 1141.9 1135.916 1143.942 1135.639 1144.219 C 1135.362 1144.496 1135.908 1145.901 1136.852 1147.342 C 1140.4 1152.757 1142.354 1162.884 1142.941 1178.896 L 1143.509 1194.396 L 1148.117 1200.396 C 1152.955 1206.696 1161.278 1222.226 1165.264 1232.396 C 1166.558 1235.696 1168.219 1239.107 1168.956 1239.975 C 1169.693 1240.843 1170.296 1241.972 1170.296 1242.482 C 1170.296 1242.993 1172.357 1245.882 1174.876 1248.903 C 1181.121 1256.392 1193.115 1274.234 1195.444 1279.5 C 1196.492 1281.869 1198.399 1285.065 1199.682 1286.602 C 1205.79 1293.921 1208.279 1302.719 1208.252 1316.896 C 1208.234 1326.282 1207.943 1327.98 1205.513 1332.896 C 1203.956 1336.047 1201.728 1338.914 1200.296 1339.608 C 1197.559 1340.934 1196.597 1343.792 1196.414 1351.146 C 1196.269 1356.948 1193.479 1360.41 1189.709 1359.464 C 1187.438 1358.894 1187.296 1359.112 1187.296 1363.155 C 1187.296 1369.213 1185.149 1371.896 1180.305 1371.896 C 1176.831 1371.896 1176.396 1372.179 1176.112 1374.614 C 1175.373 1380.965 1161.829 1384.625 1156.745 1379.848 L 1154.565 1377.801 L 1153.978 1380.736 C 1152.822 1386.512 1137.782 1390.722 1130.296 1387.364 Z" id="path-4"/>
  </g>
</svg>