<?xml version="1.0" encoding="utf-8"?>
<svg viewBox="-34.561 -112.44 960 2193.819" width="960px" height="2193.819px" xmlns="http://www.w3.org/2000/svg">
  <g id="layer1" transform="matrix(1, 0, 0, 1, -492.857368, 691.520152)">
    <path style="fill:#e3bba3;fill-opacity:0.375" d="M 1130.296 1387.364 C 1126.126 1385.494 1119.944 1379.755 1116.867 1374.896 C 1115.648 1372.971 1113.843 1368.471 1112.856 1364.896 C 1111.869 1361.321 1109.834 1355.921 1108.335 1352.896 C 1104.825 1345.816 1101.674 1326.348 1100.323 1303.396 C 1099.416 1288.002 1098.986 1285.404 1095.765 1275.896 C 1093.809 1270.121 1091.581 1262.696 1090.815 1259.396 C 1090.048 1256.096 1088.983 1251.596 1088.447 1249.396 C 1087.912 1247.196 1087.157 1241.121 1086.77 1235.896 C 1086.235 1228.676 1085.214 1224.117 1082.515 1216.896 C 1080.562 1211.671 1078.646 1204.471 1078.258 1200.896 C 1077.819 1196.843 1076.219 1191.436 1074.009 1186.53 C 1068.991 1175.391 1068.535 1169.534 1071.858 1158.896 C 1076.617 1143.667 1076.276 1121.41 1070.751 1086.396 C 1067.961 1068.721 1060.112 1025.147 1057.15 1010.896 C 1052.986 990.862 1051.738 986.306 1041.361 953.238 C 1032.533 925.106 1031.972 919.211 1028.434 817.396 L 1027.565 792.396 L 1022.321 778.905 C 1019.437 771.484 1015.488 762.259 1013.546 758.405 C 1008.011 747.422 1000.654 725.331 998.374 712.848 C 996.919 704.878 996.29 697.261 996.278 687.432 C 996.268 679.712 995.829 669.346 995.303 664.396 C 994.777 659.446 993.859 647.521 993.263 637.896 C 992.667 628.271 991.319 614.321 990.266 606.896 C 987.826 589.689 976.838 536.485 969.303 505.396 C 965.728 490.646 962.604 474.72 961.197 464.073 C 959.939 454.545 958.434 446.121 957.852 445.352 C 956.984 444.202 955.586 444.736 949.998 448.35 C 944.519 451.894 941.996 452.874 936.998 453.402 C 933.325 453.79 929.66 453.621 928.01 452.988 C 925.901 452.178 925.136 452.219 924.86 453.157 C 924.659 453.839 923.301 463.396 921.843 474.396 C 920.384 485.396 917.653 501.371 915.774 509.896 C 911.059 531.28 905.521 566.245 904.329 582.145 C 903.783 589.433 902.674 599.896 901.865 605.396 C 900.339 615.774 898.256 662.995 898.249 687.396 C 898.242 708.966 896.943 718.468 891.895 733.896 C 889.466 741.321 885.587 751.896 883.277 757.396 C 880.966 762.896 877.775 772.013 876.185 777.657 C 872.098 792.17 872.135 795.056 877.318 864.465 C 877.896 872.203 878.368 885.253 878.366 893.465 C 878.362 914.356 876.668 924.215 864.294 975.396 C 862.167 984.196 859.68 995.446 858.767 1000.396 C 857.855 1005.346 856.209 1013.671 855.109 1018.896 C 854.009 1024.121 852.731 1031.096 852.27 1034.396 C 851.809 1037.696 850.521 1045.346 849.409 1051.396 C 846.67 1066.293 844.296 1093.147 844.296 1109.225 C 844.296 1120.04 844.751 1124.239 846.803 1132.328 C 850.528 1147.013 850.87 1153.941 848.287 1162.396 C 840.611 1187.519 839.258 1195.043 838.306 1217.896 C 837.595 1234.984 837.159 1238.448 834.783 1245.896 C 833.291 1250.571 831.047 1256.421 829.796 1258.896 C 826.564 1265.292 825.099 1276.19 825.253 1292.701 C 825.326 1300.568 824.944 1308.443 824.405 1310.201 C 823.866 1311.958 822.244 1318.079 820.801 1323.803 C 819.357 1329.527 817.258 1336.01 816.135 1338.211 C 815.013 1340.411 813.434 1344.503 812.627 1347.304 C 811.821 1350.105 809.562 1354.757 807.608 1357.643 C 804.587 1362.106 803.3 1363.114 798.995 1364.393 C 788.456 1367.523 779.818 1365.676 775.717 1359.417 C 773.409 1355.894 774.189 1344.977 777.166 1339.146 C 778.876 1335.797 779.032 1334.896 777.902 1334.896 C 776.194 1334.896 769.951 1345.731 768.395 1351.396 C 767.791 1353.596 766.958 1355.896 766.546 1356.507 C 765.27 1358.396 759.543 1360.896 756.493 1360.896 C 752.358 1360.896 746.979 1356.973 745.839 1353.125 C 745.082 1350.572 744.344 1349.896 742.311 1349.896 C 738.804 1349.896 735.356 1347.285 733.732 1343.399 C 732.783 1341.127 731.53 1339.993 729.527 1339.593 C 726.154 1338.918 724.296 1335.5 724.296 1329.972 C 724.296 1327.618 723.655 1325.612 722.634 1324.769 C 719.656 1322.309 716.296 1313.188 716.296 1307.565 C 716.296 1301.217 721.806 1276.409 723.996 1272.896 C 724.853 1271.521 726.594 1269.271 727.864 1267.896 C 729.134 1266.521 731.983 1261.796 734.196 1257.396 C 736.409 1252.996 741.375 1245.571 745.232 1240.896 C 752.719 1231.822 754.672 1229.102 761.032 1218.896 C 763.8 1214.455 765.413 1210.442 766.125 1206.224 C 766.824 1202.087 769.308 1195.823 773.658 1187.224 C 780.71 1173.287 781.354 1170.256 779.893 1157.896 C 779.112 1151.288 779.486 1149.271 785.813 1125.928 C 788.053 1117.666 787.66 1110.062 783.353 1078.396 C 781.183 1062.446 778.458 1039.721 777.297 1027.896 C 776.136 1016.071 774.325 998.746 773.272 989.396 C 772.22 980.046 770.873 967.671 770.279 961.896 C 769.684 956.121 767.58 939.921 765.602 925.896 C 762.351 902.845 761.996 898.139 761.901 876.896 C 761.799 854.128 762.038 850.744 766.38 813.396 C 767.729 801.794 769.627 790.255 773.452 770.396 C 776.459 754.782 776.512 753.999 775.664 737.896 C 775.187 728.821 774.796 708.121 774.796 691.896 C 774.796 659.618 775.332 663.616 768.153 642.396 C 764.619 631.952 760.449 608.746 756.246 576.135 C 755.13 567.479 753.11 553.81 751.757 545.76 C 750.403 537.71 749.296 529.597 749.296 527.729 C 749.296 525.862 748.195 518.498 746.849 511.365 C 745.503 504.232 743.476 491.646 742.344 483.396 C 741.212 475.146 739.608 463.896 738.779 458.396 C 732.663 417.81 724.177 333.495 725.729 328.729 C 725.967 327.996 726.41 312.546 726.712 294.396 C 727.668 236.932 730.872 207.399 738.384 186.816 C 744.547 169.93 746.506 153.77 746.799 117.396 C 746.995 93.098 747.131 92.115 755.438 54.896 C 761.39 28.227 762.687 14.571 762.752 -22.104 C 762.797 -47.687 761.563 -65.049 758.201 -86.104 C 754.997 -106.176 754.44 -106.459 751.876 -89.327 C 750.346 -79.113 741.452 -42.308 734.663 -18.104 C 732.265 -9.554 731.98 -6.753 731.806 9.896 C 731.701 20.071 731.11 30.421 730.494 32.896 C 728.902 39.294 719.506 66.63 717.261 71.396 C 713.998 78.321 707.616 94.062 704.488 102.896 C 690.598 142.131 677.56 175.051 667.061 197.396 C 653.214 226.868 646.649 243.322 633.347 281.896 C 624.837 306.574 618.668 324.033 617.272 327.396 C 616.815 328.496 616.207 331.421 615.921 333.896 C 615.634 336.371 614.879 341.771 614.242 345.896 C 613.554 350.346 613.367 356.446 613.782 360.896 C 615.434 378.627 615.701 375.872 608.778 412.396 C 604.587 434.507 604.485 432.268 611.337 468.396 C 612.381 473.896 613.36 483.496 613.515 489.728 C 613.795 501.051 613.793 501.062 610.99 503.478 C 609.429 504.823 606.909 505.896 605.312 505.896 C 600.399 505.896 598.812 502.541 596.385 487.019 C 595.185 479.345 593.33 470.013 592.262 466.281 C 591.195 462.549 589.598 455.555 588.713 450.738 C 586.766 440.148 585.106 438.143 581.757 442.342 C 580.492 443.929 579.212 446.616 578.914 448.312 C 578.617 450.008 578.093 463.996 577.75 479.396 C 576.881 518.472 576.216 525.43 573.052 528.595 C 570.083 531.563 564.565 531.958 560.773 529.473 C 557.911 527.598 557.789 525.965 559.349 510.396 C 560.148 502.42 560.009 497.395 558.662 485.57 C 557.266 473.317 557.176 469.412 558.141 463.07 C 559.519 454.015 559.637 447.896 558.432 447.896 C 557.958 447.896 557.305 450.709 556.983 454.146 C 556.66 457.584 555.909 464.671 555.313 469.896 C 554.718 475.121 554.052 491.239 553.834 505.713 C 553.51 527.22 553.156 532.46 551.9 534.377 C 549.052 538.724 540.412 538.846 536.55 534.594 C 534.769 532.635 534.46 530.281 533.693 512.896 C 532.617 488.475 532.573 472.087 533.562 464.577 C 534.073 460.701 533.99 458.967 533.312 459.386 C 532.753 459.731 532.296 461.311 532.296 462.896 C 532.296 464.481 531.846 466.056 531.296 466.396 C 530.678 466.778 530.296 475.417 530.296 488.987 C 530.296 512.336 529.604 516.591 525.446 518.816 C 521.805 520.764 517.526 520.074 514.061 516.978 L 510.796 514.061 L 510.179 491.728 C 509.84 479.446 509.962 466.021 510.45 461.896 C 510.938 457.771 512.294 446.296 513.463 436.396 C 515.726 417.227 516.908 397.896 515.817 397.896 C 515.133 397.896 505.075 406.53 497.961 413.225 C 490.809 419.955 482.207 422.919 469.997 422.863 C 461.781 422.825 458.296 420.921 458.296 416.47 C 458.296 414.409 459.08 413.53 462.046 412.266 C 472.127 407.971 474.296 406.844 474.296 405.9 C 474.296 405.337 479.101 400.048 484.975 394.146 C 490.848 388.244 497.631 380.711 500.048 377.406 C 507.808 366.792 508.573 365.896 509.873 365.896 C 510.575 365.896 512.099 364.69 513.259 363.216 C 514.419 361.741 517.325 359.154 519.716 357.466 C 530.534 349.83 546.239 335.67 548.896 331.154 C 553.501 323.33 555.294 319.15 555.314 316.195 C 555.331 313.649 556.783 307.686 562.327 287.396 C 563.379 283.546 565.153 277.047 566.27 272.954 C 567.387 268.861 568.983 261.578 569.817 256.77 C 570.652 251.962 572.867 243.794 574.74 238.619 C 580.181 223.589 583.024 209.758 590.819 160.396 C 596.203 126.298 599.094 109.669 601.77 97.396 C 603.089 91.346 605.584 78.296 607.314 68.396 C 610.267 51.502 615.907 29.403 620.459 16.896 C 621.56 13.871 624.177 6.446 626.275 0.396 C 628.372 -5.654 631.436 -13.529 633.082 -17.104 C 641.685 -35.786 645.114 -49.911 648.254 -79.604 C 649.417 -90.604 651.474 -108.604 652.826 -119.604 C 659.663 -175.234 659.798 -177.163 659.528 -215.104 C 659.136 -270.111 660.843 -290.121 668.912 -325.104 C 673.559 -345.249 678.523 -360.484 682.269 -366.099 C 689.432 -376.835 699.192 -384.315 713.379 -389.942 C 721.089 -393.001 724.487 -394.732 734.296 -400.596 C 737.321 -402.404 744.218 -405.529 749.623 -407.539 C 772.848 -416.178 827.71 -442.54 841.796 -451.83 C 851.448 -458.196 857.646 -464.304 859.882 -469.655 C 862.051 -474.847 864.3 -490.839 864.811 -504.698 C 865.258 -516.849 865.17 -517.56 862.431 -523.959 C 856.383 -538.091 853.092 -549.72 849.845 -568.435 C 848.18 -578.03 847.79 -579.104 845.969 -579.104 C 845.304 -579.104 843.026 -580.282 840.908 -581.721 C 835.787 -585.201 830.386 -596.83 826.904 -611.872 C 823.915 -624.785 823.699 -629.715 825.772 -637.674 C 827.333 -643.666 828.37 -645.433 832.112 -648.472 C 834.113 -650.097 834.336 -650.917 833.746 -654.479 C 833.371 -656.747 832.667 -659.359 832.183 -660.281 C 831.699 -661.204 830.814 -667.729 830.216 -674.781 C 829.618 -681.834 828.651 -688.597 828.067 -689.81 C 827.313 -691.374 827.329 -694.868 828.12 -701.81 C 828.833 -708.073 828.885 -711.724 828.265 -711.937 C 827.022 -712.364 827.001 -715.804 828.238 -716.568 C 828.756 -716.888 829.454 -719.277 829.789 -721.877 C 830.124 -724.477 830.825 -727.385 831.347 -728.34 C 831.869 -729.295 832.296 -731.27 832.296 -732.73 C 832.296 -734.189 833.722 -737.682 835.466 -740.493 C 837.21 -743.304 840.086 -748.147 841.857 -751.257 C 844.808 -756.436 853.479 -767.654 862.206 -777.583 C 866.464 -782.426 874.976 -788.963 878.046 -789.746 C 879.283 -790.062 880.296 -790.741 880.296 -791.256 C 880.296 -791.77 880.858 -792.087 881.546 -791.959 C 882.233 -791.831 884.209 -792.061 885.937 -792.471 C 888.357 -793.044 888.967 -793.644 888.591 -795.084 C 888.18 -796.654 888.873 -797.068 892.932 -797.676 C 895.589 -798.075 899.252 -799.023 901.073 -799.784 C 902.894 -800.545 904.834 -800.889 905.383 -800.549 C 905.933 -800.21 907.012 -800.454 907.781 -801.092 C 908.55 -801.73 911.343 -802.32 913.987 -802.402 C 916.632 -802.485 919.116 -803.013 919.508 -803.576 C 919.977 -804.25 921.9 -804.003 925.142 -802.852 C 930.928 -800.797 933.971 -800.629 934.539 -802.333 C 934.843 -803.246 935.586 -803.144 937.431 -801.935 C 939.777 -800.398 943.606 -800.375 947.296 -801.876 C 948.121 -802.212 950.146 -802.597 951.796 -802.732 C 953.446 -802.866 956.322 -803.291 958.188 -803.675 C 960.517 -804.154 961.37 -804.033 960.911 -803.29 C 960.459 -802.559 962.164 -802.217 966.163 -802.236 C 972.51 -802.266 976.353 -800.755 980.018 -796.786 C 981.24 -795.462 984.274 -793.81 986.759 -793.114 C 989.244 -792.418 992.294 -790.841 993.537 -789.608 C 994.779 -788.376 998.046 -786.216 1000.796 -784.808 C 1009.098 -780.558 1016.771 -772.418 1031.623 -752.104 C 1033.433 -749.629 1035.49 -746.029 1036.193 -744.104 C 1036.897 -742.179 1038.131 -739.371 1038.935 -737.863 C 1040.943 -734.099 1042.526 -725.244 1043.002 -715.104 C 1043.481 -704.903 1043.511 -706.212 1042.356 -687.604 C 1041.181 -668.673 1039.79 -658.265 1037.619 -652.153 L 1035.913 -647.347 L 1038.578 -644.18 C 1041.448 -640.769 1045.296 -629.749 1045.296 -624.939 C 1045.296 -619.848 1040.419 -599.972 1037.036 -591.273 C 1035.002 -586.045 1032.523 -581.668 1030.379 -579.523 C 1026.952 -576.094 1026.318 -575.839 1020.834 -575.686 L 1017.872 -575.604 L 1015.025 -561.604 C 1010.834 -541.001 1010.587 -539.879 1009.539 -536.604 C 1008.595 -533.652 1008.703 -520.107 1009.793 -504.82 C 1010.63 -493.08 1013.86 -478.523 1016.704 -473.67 C 1020.274 -467.577 1028.605 -460.323 1037.856 -455.251 C 1076.596 -434.012 1113.336 -415.964 1135.796 -407.138 C 1153.622 -400.133 1156.722 -398.578 1169.296 -390.335 C 1183.76 -380.853 1195.142 -371.444 1199.766 -365.144 C 1208.603 -353.105 1215.034 -331.868 1220.369 -297.104 C 1222.434 -283.651 1222.612 -278.702 1222.837 -228.604 C 1223.068 -176.939 1224.045 -153.869 1227.229 -124.857 C 1232.901 -73.165 1235.948 -51.546 1239.456 -38.104 C 1241.924 -28.645 1242.353 -27.479 1249.376 -11.104 C 1255.568 3.333 1267.889 39.898 1271.28 53.896 C 1272.412 58.571 1274.7 71.621 1276.363 82.896 C 1278.027 94.171 1281.15 114.196 1283.303 127.396 C 1287.228 151.455 1290.39 172.442 1292.343 187.396 C 1294.379 202.98 1296.487 215.253 1298.42 222.777 C 1300.644 231.435 1310.772 263.431 1316.025 278.396 C 1317.956 283.896 1321.014 293.571 1322.821 299.896 C 1328.694 320.455 1330.977 325.483 1337.715 332.687 C 1341.059 336.263 1350.479 345.03 1358.647 352.17 C 1367.805 360.174 1374.514 366.879 1376.147 369.657 C 1379.321 375.058 1385.919 383.524 1392.366 390.47 C 1394.956 393.26 1398.027 397.41 1399.191 399.692 C 1402.258 405.703 1406.521 410.182 1412.788 413.981 C 1417.659 416.933 1418.296 417.696 1418.296 420.584 C 1418.296 425.554 1414.94 427.302 1406.677 426.639 C 1396.513 425.823 1387.844 421.02 1376.546 409.945 L 1367.296 400.877 L 1367.296 407.021 C 1367.296 413.493 1367.722 416.56 1371.863 439.896 C 1376.074 463.627 1376.255 465.544 1376.275 486.678 C 1376.299 510.128 1375.645 513.017 1369.755 515.478 C 1366.453 516.857 1365.825 516.833 1362.469 515.192 C 1357.552 512.788 1356.669 509.708 1355.319 490.257 C 1353.644 466.145 1353.004 461.915 1349.678 453.027 C 1348.368 449.524 1347.296 445.137 1347.296 443.277 C 1347.296 441.418 1346.846 439.896 1346.296 439.896 C 1344.807 439.896 1345.085 446.295 1346.872 453.193 C 1348.874 460.918 1349.2 480.252 1347.546 493.107 C 1346.858 498.448 1346.296 508.619 1346.296 515.711 C 1346.296 527.922 1346.169 528.741 1343.904 531.185 C 1340.778 534.558 1334.885 535.708 1331.394 533.626 C 1326.585 530.759 1326.301 529.071 1326.639 505.396 C 1326.947 483.889 1326.472 473.573 1324.337 455.439 C 1322.601 440.697 1321.153 442.508 1321.915 458.469 C 1322.362 467.834 1322.214 473.638 1321.469 475.944 C 1319.773 481.194 1318.329 495.837 1317.984 511.284 C 1317.686 524.601 1317.574 525.253 1315.246 527.137 C 1312.025 529.746 1304.651 528.939 1301.959 525.683 C 1300.221 523.58 1300.153 521.199 1300.691 481.009 C 1301.243 439.732 1301.042 435.896 1298.324 435.896 C 1297.925 435.896 1297.525 439.787 1297.436 444.542 C 1297.348 449.297 1296.536 455.934 1295.634 459.292 C 1294.731 462.649 1293.905 467.646 1293.797 470.396 C 1293.469 478.773 1292.154 491.188 1291.185 495.053 C 1289.636 501.232 1282.063 502.144 1277.958 496.645 C 1275.228 492.989 1274.661 481.176 1276.434 464.896 C 1278.178 448.88 1278.181 428.944 1276.441 422.149 C 1275.702 419.262 1274.804 417.082 1274.446 417.303 C 1274.088 417.524 1273.701 415.499 1273.585 412.803 C 1273.469 410.107 1272.916 406.199 1272.355 404.118 C 1268.848 391.092 1267.366 376.707 1267.579 357.741 C 1267.785 339.374 1267.682 338.183 1265.546 334.186 C 1264.308 331.87 1263.296 329.298 1263.296 328.469 C 1263.296 327.001 1256.213 310.134 1240.955 275.265 C 1236.832 265.843 1230.993 251.668 1227.978 243.765 C 1224.964 235.862 1217.462 217.471 1211.307 202.896 C 1197.336 169.813 1194.697 162.972 1182.756 128.896 C 1173.175 101.553 1170.36 94.322 1164.459 81.896 C 1161.012 74.639 1151.326 48.117 1149.303 40.396 C 1148.499 37.33 1147.909 28.242 1147.777 16.896 C 1147.585 0.328 1147.285 -2.596 1144.911 -11.104 C 1139.346 -31.046 1133.157 -57.141 1130.334 -72.565 C 1127.905 -85.842 1124.296 -113.434 1124.296 -118.733 C 1124.296 -119.487 1123.899 -120.104 1123.415 -120.104 C 1122.93 -120.104 1121.778 -115.041 1120.854 -108.854 C 1119.931 -102.666 1117.672 -89.504 1115.834 -79.604 C 1106.318 -28.327 1105.472 0.315 1112.452 34.896 C 1121.713 80.78 1123.106 91.503 1124.337 126.396 C 1124.86 141.246 1125.73 155.196 1126.268 157.396 C 1126.807 159.596 1127.259 163.293 1127.272 165.611 C 1127.289 168.683 1127.801 170.096 1129.158 170.823 C 1130.183 171.371 1131.503 173.075 1132.092 174.608 C 1133.22 177.544 1136.261 192.292 1136.792 197.396 C 1136.963 199.046 1137.778 202.534 1138.602 205.146 C 1139.426 207.759 1139.864 209.896 1139.575 209.896 C 1139.287 209.896 1139.544 210.491 1140.147 211.217 C 1140.75 211.944 1141.214 213.856 1141.178 215.467 C 1141.143 217.078 1141.64 220.646 1142.283 223.396 C 1146.94 243.301 1148.324 250.91 1149.286 261.896 C 1150.538 276.187 1151.907 287.686 1153.812 299.896 C 1154.541 304.571 1155.919 315.581 1156.874 324.362 C 1158.399 338.38 1158.463 342.529 1157.405 358.362 C 1155.636 384.829 1150.624 437.515 1147.746 459.896 C 1146.367 470.621 1144.366 491.996 1143.299 507.396 C 1141.025 540.228 1133.034 617.238 1130.789 627.961 C 1129.933 632.05 1128.393 638.096 1127.368 641.396 C 1121.647 659.807 1119.236 696.997 1121.21 736.396 C 1122.325 758.653 1123.227 763.724 1130.632 789.396 C 1135.16 805.096 1141.831 838.88 1143.761 855.896 C 1146.456 879.647 1145.699 918.765 1141.786 957.896 C 1140.27 973.064 1138.628 1004.172 1137.775 1033.896 C 1137.498 1043.521 1136.818 1057.696 1136.262 1065.396 C 1132.864 1112.507 1132.434 1133.202 1134.719 1139.68 C 1135.502 1141.9 1135.916 1143.942 1135.639 1144.219 C 1135.362 1144.496 1135.908 1145.901 1136.852 1147.342 C 1140.4 1152.757 1142.354 1162.884 1142.941 1178.896 L 1143.509 1194.396 L 1148.117 1200.396 C 1152.955 1206.696 1161.278 1222.226 1165.264 1232.396 C 1166.558 1235.696 1168.219 1239.107 1168.956 1239.975 C 1169.693 1240.843 1170.296 1241.972 1170.296 1242.482 C 1170.296 1242.993 1172.357 1245.882 1174.876 1248.903 C 1181.121 1256.392 1193.115 1274.234 1195.444 1279.5 C 1196.492 1281.869 1198.399 1285.065 1199.682 1286.602 C 1205.79 1293.921 1208.279 1302.719 1208.252 1316.896 C 1208.234 1326.282 1207.943 1327.98 1205.513 1332.896 C 1203.956 1336.047 1201.728 1338.914 1200.296 1339.608 C 1197.559 1340.934 1196.597 1343.792 1196.414 1351.146 C 1196.269 1356.948 1193.479 1360.41 1189.709 1359.464 C 1187.438 1358.894 1187.296 1359.112 1187.296 1363.155 C 1187.296 1369.213 1185.149 1371.896 1180.305 1371.896 C 1176.831 1371.896 1176.396 1372.179 1176.112 1374.614 C 1175.373 1380.965 1161.829 1384.625 1156.745 1379.848 L 1154.565 1377.801 L 1153.978 1380.736 C 1152.822 1386.512 1137.782 1390.722 1130.296 1387.364 Z" id="path2180"/>
  </g>
  <g id="g-1" transform="matrix(1, 0, 0, 1, -489.457222, 692.821177)">
    <path style="fill-opacity: 0.375; fill: rgb(0, 255, 21);" d="M 1130.296 1387.364 C 1126.126 1385.494 1119.944 1379.755 1116.867 1374.896 C 1115.648 1372.971 1113.843 1368.471 1112.856 1364.896 C 1111.869 1361.321 1109.834 1355.921 1108.335 1352.896 C 1104.825 1345.816 1101.674 1326.348 1100.323 1303.396 C 1099.416 1288.002 1098.986 1285.404 1095.765 1275.896 C 1093.809 1270.121 1091.581 1262.696 1090.815 1259.396 C 1090.048 1256.096 1088.983 1251.596 1088.447 1249.396 C 1087.912 1247.196 1087.157 1241.121 1086.77 1235.896 C 1086.235 1228.676 1085.214 1224.117 1082.515 1216.896 C 1080.562 1211.671 1078.646 1204.471 1078.258 1200.896 C 1077.819 1196.843 1076.219 1191.436 1074.009 1186.53 C 1068.991 1175.391 1068.535 1169.534 1071.858 1158.896 C 1076.617 1143.667 1076.276 1121.41 1070.751 1086.396 C 1067.961 1068.721 1060.112 1025.147 1057.15 1010.896 C 1052.986 990.862 1051.738 986.306 1041.361 953.238 C 1032.533 925.106 1031.972 919.211 1028.434 817.396 L 1027.565 792.396 L 1022.321 778.905 C 1019.437 771.484 1015.488 762.259 1013.546 758.405 C 1008.011 747.422 1000.654 725.331 998.374 712.848 C 996.919 704.878 996.29 697.261 996.278 687.432 C 996.268 679.712 995.829 669.346 995.303 664.396 C 994.777 659.446 993.859 647.521 993.263 637.896 C 992.667 628.271 991.319 614.321 990.266 606.896 C 987.826 589.689 976.838 536.485 969.303 505.396 C 965.728 490.646 962.604 474.72 961.197 464.073 C 959.939 454.545 958.434 446.121 957.852 445.352 C 956.984 444.202 955.586 444.736 949.998 448.35 C 944.519 451.894 941.996 452.874 936.998 453.402 C 933.325 453.79 929.66 453.621 928.01 452.988 C 925.901 452.178 925.136 452.219 924.86 453.157 C 924.659 453.839 923.301 463.396 921.843 474.396 C 920.384 485.396 917.653 501.371 915.774 509.896 C 911.059 531.28 905.521 566.245 904.329 582.145 C 903.783 589.433 902.674 599.896 901.865 605.396 C 900.339 615.774 898.256 662.995 898.249 687.396 C 898.242 708.966 896.943 718.468 891.895 733.896 C 889.466 741.321 885.587 751.896 883.277 757.396 C 880.966 762.896 877.775 772.013 876.185 777.657 C 872.098 792.17 872.135 795.056 877.318 864.465 C 877.896 872.203 878.368 885.253 878.366 893.465 C 878.362 914.356 876.668 924.215 864.294 975.396 C 862.167 984.196 859.68 995.446 858.767 1000.396 C 857.855 1005.346 856.209 1013.671 855.109 1018.896 C 854.009 1024.121 852.731 1031.096 852.27 1034.396 C 851.809 1037.696 850.521 1045.346 849.409 1051.396 C 846.67 1066.293 844.296 1093.147 844.296 1109.225 C 844.296 1120.04 844.751 1124.239 846.803 1132.328 C 850.528 1147.013 850.87 1153.941 848.287 1162.396 C 840.611 1187.519 839.258 1195.043 838.306 1217.896 C 837.595 1234.984 837.159 1238.448 834.783 1245.896 C 833.291 1250.571 831.047 1256.421 829.796 1258.896 C 826.564 1265.292 825.099 1276.19 825.253 1292.701 C 825.326 1300.568 824.944 1308.443 824.405 1310.201 C 823.866 1311.958 822.244 1318.079 820.801 1323.803 C 819.357 1329.527 817.258 1336.01 816.135 1338.211 C 815.013 1340.411 813.434 1344.503 812.627 1347.304 C 811.821 1350.105 809.562 1354.757 807.608 1357.643 C 804.587 1362.106 803.3 1363.114 798.995 1364.393 C 788.456 1367.523 779.818 1365.676 775.717 1359.417 C 773.409 1355.894 774.189 1344.977 777.166 1339.146 C 778.876 1335.797 779.032 1334.896 777.902 1334.896 C 776.194 1334.896 769.951 1345.731 768.395 1351.396 C 767.791 1353.596 766.958 1355.896 766.546 1356.507 C 765.27 1358.396 759.543 1360.896 756.493 1360.896 C 752.358 1360.896 746.979 1356.973 745.839 1353.125 C 745.082 1350.572 744.344 1349.896 742.311 1349.896 C 738.804 1349.896 735.356 1347.285 733.732 1343.399 C 732.783 1341.127 731.53 1339.993 729.527 1339.593 C 726.154 1338.918 724.296 1335.5 724.296 1329.972 C 724.296 1327.618 723.655 1325.612 722.634 1324.769 C 719.656 1322.309 716.296 1313.188 716.296 1307.565 C 716.296 1301.217 721.806 1276.409 723.996 1272.896 C 724.853 1271.521 726.594 1269.271 727.864 1267.896 C 729.134 1266.521 731.983 1261.796 734.196 1257.396 C 736.409 1252.996 741.375 1245.571 745.232 1240.896 C 752.719 1231.822 754.672 1229.102 761.032 1218.896 C 763.8 1214.455 765.413 1210.442 766.125 1206.224 C 766.824 1202.087 769.308 1195.823 773.658 1187.224 C 780.71 1173.287 781.354 1170.256 779.893 1157.896 C 779.112 1151.288 779.486 1149.271 785.813 1125.928 C 788.053 1117.666 787.66 1110.062 783.353 1078.396 C 781.183 1062.446 778.458 1039.721 777.297 1027.896 C 776.136 1016.071 774.325 998.746 773.272 989.396 C 772.22 980.046 770.873 967.671 770.279 961.896 C 769.684 956.121 767.58 939.921 765.602 925.896 C 762.351 902.845 761.996 898.139 761.901 876.896 C 761.799 854.128 762.038 850.744 766.38 813.396 C 767.729 801.794 769.627 790.255 773.452 770.396 C 776.459 754.782 776.512 753.999 775.664 737.896 C 775.187 728.821 774.796 708.121 774.796 691.896 C 774.796 659.618 775.332 663.616 768.153 642.396 C 764.619 631.952 760.449 608.746 756.246 576.135 C 755.13 567.479 753.11 553.81 751.757 545.76 C 750.403 537.71 749.296 529.597 749.296 527.729 C 749.296 525.862 748.195 518.498 746.849 511.365 C 745.503 504.232 743.476 491.646 742.344 483.396 C 741.212 475.146 739.608 463.896 738.779 458.396 C 732.663 417.81 724.177 333.495 725.729 328.729 C 725.967 327.996 726.41 312.546 726.712 294.396 C 727.668 236.932 730.872 207.399 738.384 186.816 C 744.547 169.93 1125.73 155.196 1126.268 157.396 C 1126.807 159.596 1127.259 163.293 1127.272 165.611 C 1127.289 168.683 1127.801 170.096 1129.158 170.823 C 1130.183 171.371 1131.503 173.075 1132.092 174.608 C 1133.22 177.544 1136.261 192.292 1136.792 197.396 C 1136.963 199.046 1137.778 202.534 1138.602 205.146 C 1139.426 207.759 1139.864 209.896 1139.575 209.896 C 1139.287 209.896 1139.544 210.491 1140.147 211.217 C 1140.75 211.944 1141.214 213.856 1141.178 215.467 C 1141.143 217.078 1141.64 220.646 1142.283 223.396 C 1146.94 243.301 1148.324 250.91 1149.286 261.896 C 1150.538 276.187 1151.907 287.686 1153.812 299.896 C 1154.541 304.571 1155.919 315.581 1156.874 324.362 C 1158.399 338.38 1158.463 342.529 1157.405 358.362 C 1155.636 384.829 1150.624 437.515 1147.746 459.896 C 1146.367 470.621 1144.366 491.996 1143.299 507.396 C 1141.025 540.228 1133.034 617.238 1130.789 627.961 C 1129.933 632.05 1128.393 638.096 1127.368 641.396 C 1121.647 659.807 1119.236 696.997 1121.21 736.396 C 1122.325 758.653 1123.227 763.724 1130.632 789.396 C 1135.16 805.096 1141.831 838.88 1143.761 855.896 C 1146.456 879.647 1145.699 918.765 1141.786 957.896 C 1140.27 973.064 1138.628 1004.172 1137.775 1033.896 C 1137.498 1043.521 1136.818 1057.696 1136.262 1065.396 C 1132.864 1112.507 1132.434 1133.202 1134.719 1139.68 C 1135.502 1141.9 1135.916 1143.942 1135.639 1144.219 C 1135.362 1144.496 1135.908 1145.901 1136.852 1147.342 C 1140.4 1152.757 1142.354 1162.884 1142.941 1178.896 L 1143.509 1194.396 L 1148.117 1200.396 C 1152.955 1206.696 1161.278 1222.226 1165.264 1232.396 C 1166.558 1235.696 1168.219 1239.107 1168.956 1239.975 C 1169.693 1240.843 1170.296 1241.972 1170.296 1242.482 C 1170.296 1242.993 1172.357 1245.882 1174.876 1248.903 C 1181.121 1256.392 1193.115 1274.234 1195.444 1279.5 C 1196.492 1281.869 1198.399 1285.065 1199.682 1286.602 C 1205.79 1293.921 1208.279 1302.719 1208.252 1316.896 C 1208.234 1326.282 1207.943 1327.98 1205.513 1332.896 C 1203.956 1336.047 1201.728 1338.914 1200.296 1339.608 C 1197.559 1340.934 1196.597 1343.792 1196.414 1351.146 C 1196.269 1356.948 1193.479 1360.41 1189.709 1359.464 C 1187.438 1358.894 1187.296 1359.112 1187.296 1363.155 C 1187.296 1369.213 1185.149 1371.896 1180.305 1371.896 C 1176.831 1371.896 1176.396 1372.179 1176.112 1374.614 C 1175.373 1380.965 1161.829 1384.625 1156.745 1379.848 L 1154.565 1377.801 L 1153.978 1380.736 C 1152.822 1386.512 1137.782 1390.722 1130.296 1387.364 Z" id="path-1"/>
  </g>
</svg>